<svg xmlns="http://www.w3.org/2000/svg" viewBox="0 0 144 144"><path opacity=".1" d="M62 69H34.096c-2.552 0-5.038-.814-7.096-2.323L17 58l10-8.677A11.995 11.995 0 0 1 34.096 47H62c1.1 0 2 .762 2 1.692v18.615c0 .93-.9 1.693-2 1.693zm12 32h17.904c2.552 0 5.038-.814 7.096-2.323L109 90l-10-8.677A11.995 11.995 0 0 0 91.904 79H74c-1.1 0-2 .762-2 1.692v18.615c0 .93.9 1.693 2 1.693z"/><path fill="none" stroke="#000" stroke-width="4" stroke-linecap="round" stroke-linejoin="round" stroke-miterlimit="10" d="M50 127h36M62 69H34.096c-2.552 0-5.038-.814-7.096-2.323L17 58l10-8.677A11.995 11.995 0 0 1 34.096 47H62c1.1 0 2 .762 2 1.692v18.615c0 .93-.9 1.693-2 1.693zm12-18h35.904c2.552 0 5.038-.814 7.096-2.323L127 40l-10-8.677A11.995 11.995 0 0 0 109.904 29H74c-1.1 0-2 .762-2 1.692v18.615c0 .93.9 1.693 2 1.693zm0 50h17.904c2.552 0 5.038-.814 7.096-2.323L109 90l-10-8.677A11.995 11.995 0 0 0 91.904 79H74c-1.1 0-2 .762-2 1.692v18.615c0 .93.9 1.693 2 1.693zm-2 26h-8V21c0-2.2 1.8-4 4-4s4 1.8 4 4v106z"/></svg>