<svg viewBox="0 0 144 144" xmlns="http://www.w3.org/2000/svg"><path d="M90 63c-12.15 0-22 9.85-22 22 0 22 20 42 22 42s22-19.75 22-42c0-12.15-9.85-22-22-22zm0 34c-6.627 0-12-5.373-12-12s5.373-12 12-12 12 5.373 12 12-5.373 12-12 12z" fill="#46c1be"/><g fill="none" stroke="#000" stroke-width="4" stroke-linecap="round" stroke-linejoin="round" stroke-miterlimit="10"><path d="M44 89.65L16 101V28.35L44 17zm66.933 4.228L128 101V28.35L100 17v48"/><path d="M68 85c0 22 20 42 22 42s22-19.75 22-42c0-12.15-9.85-22-22-22s-22 9.85-22 22z"/><circle cx="90" cy="85" r="12"/><path d="M100 65V17L72 28.35V72m0 0V28.35L44 17v72.65l27.077 10.797"/></g></svg>